<svg xmlns="http://www.w3.org/2000/svg" width="550" height="550" enable-background="new 0 0 550 550" fill="#ffffff" viewBox="0 0 550 550"><path d="M19,213h511.109c3.372,0,6.517-1.699,8.364-4.519c1.848-2.82,2.15-6.382,0.805-9.473
		c-19.572-44.949-51.518-82.978-92.384-109.977C405.272,61.534,356.526,47,305.924,47h-62.738
		c-50.602,0-99.349,14.534-140.97,42.031C61.35,116.03,29.403,154.059,9.831,199.008c-1.346,3.091-1.043,6.653,0.805,9.473
		C12.483,211.301,15.628,213,19,213z M113.24,105.719C151.581,80.389,196.516,67,243.186,67h62.738
		c46.671,0,91.605,13.389,129.946,38.719c33.312,22.008,60.188,51.977,78.421,87.281H34.818
		C53.052,157.696,79.928,127.727,113.24,105.719z"/><circle cx="184.071" cy="164.6" r="9.974"/><circle cx="201.026" cy="101.764" r="9.974"/><circle cx="366.595" cy="121.712" r="9.975"/><circle cx="296.777" cy="91.79" r="9.974"/><circle cx="248.902" cy="134.678" r="9.974"/><circle cx="328.694" cy="158.616" r="9.974"/><circle cx="124.227" cy="138.668" r="9.974"/><circle cx="382.554" cy="164.6" r="9.974"/><circle cx="434.419" cy="144.652" r="9.974"/><path d="M530.945 429H19.762c-2.832 0-5.532 1.201-7.428 3.305-1.896 2.104-2.812 4.913-2.519 7.73 1.733 16.65 8.351 32.22 18.632 43.841C39.359 496.208 53.388 503 67.95 503h416.722c14.575 0 28.359-6.862 38.813-19.322 9.635-11.483 15.819-27.013 17.415-43.728.268-2.805-.66-5.592-2.556-7.677C536.449 430.188 533.763 429 530.945 429zM484.672 483H67.95c-15.97 0-30.485-14.249-36.118-34h487.234C513.853 468.987 500.222 483 484.672 483zM46.429 417h456.143C523.21 417 540 400.21 540 379.572v-.144C540 358.79 523.21 342 502.571 342H46.429C25.79 342 9 358.79 9 379.428v.144C9 400.21 25.79 417 46.429 417zM29 379.428C29 369.818 36.818 362 46.429 362h456.143c9.61 0 17.429 7.818 17.429 17.428v.144c0 9.61-7.818 17.428-17.429 17.428H46.429C36.818 397 29 389.182 29 379.572V379.428zM46.762 296h455.812c20.639 0 37.429-16.822 37.429-37.5s-16.79-37.5-37.429-37.5H381.226c-2.633 0-5.16 1.039-7.032 2.891l-23.761 23.502-24.057-23.54c-1.869-1.829-4.38-2.853-6.994-2.853H46.762c-20.639 0-37.429 16.822-37.429 37.5S26.123 296 46.762 296zM46.762 241h268.541l28.174 27.568c3.901 3.817 10.145 3.802 14.026-.038L385.336 241h117.238c9.61 0 17.429 7.851 17.429 17.5s-7.818 17.5-17.429 17.5H46.762c-9.61 0-17.429-7.851-17.429-17.5S37.151 241 46.762 241zM19.333 320.221c19.723 0 29.342 3.15 39.525 6.485 11.227 3.677 22.836 7.479 45.751 7.479s34.523-3.802 45.75-7.479c10.184-3.335 19.803-6.485 39.525-6.485s29.341 3.15 39.524 6.485c11.227 3.677 22.836 7.479 45.751 7.479s34.524-3.802 45.751-7.479c10.184-3.335 19.803-6.485 39.525-6.485 19.725 0 29.344 3.15 39.528 6.485 11.228 3.677 22.837 7.479 45.754 7.479 22.916 0 34.525-3.802 45.753-7.479 10.185-3.335 19.804-6.485 39.528-6.485 5.522 0 10-4.477 10-10s-4.478-10-10-10c-22.916 0-34.525 3.802-45.753 7.479-10.185 3.335-19.804 6.485-39.528 6.485-19.726 0-29.345-3.15-39.529-6.485-11.228-3.677-22.837-7.479-45.753-7.479-22.914 0-34.523 3.802-45.75 7.479-10.184 3.335-19.803 6.485-39.526 6.485s-29.343-3.15-39.526-6.485c-11.227-3.677-22.835-7.479-45.749-7.479-22.915 0-34.523 3.802-45.75 7.479-10.184 3.335-19.803 6.485-39.525 6.485-19.724 0-29.343-3.15-39.526-6.485-11.227-3.677-22.835-7.479-45.75-7.479-5.522 0-10 4.477-10 10S13.811 320.221 19.333 320.221z"/></svg>