<?xml version="1.0" encoding="UTF-8"?><svg xmlns="http://www.w3.org/2000/svg" xmlns:xlink="http://www.w3.org/1999/xlink" version="1.1" id="Layer_1" x="0px" y="0px" fill="#ffffff" viewBox="0 0 101 101" xml:space="preserve"><path d="M74.1 70.8c4.7-5.5 7.5-12.5 7.5-20.3 0-4.6-1-8.9-2.8-12.8 3.5-2 5.7-5.8 5.7-9.9 0-6.3-5.2-11.5-11.5-11.5-4.2 0-7.9 2.3-9.9 5.8-3.9-1.7-8.2-2.7-12.7-2.7s-8.8 1-12.7 2.7c-2-3.5-5.8-5.8-9.9-5.8-6.3 0-11.5 5.2-11.5 11.5 0 4.1 2.3 7.9 5.7 9.9-1.8 3.9-2.8 8.3-2.8 12.8 0 7.5 2.7 14.6 7.5 20.3l-9.8 9.8c-.9.9-.9 2.5 0 3.4.5.5 1.1.7 1.7.7.6 0 1.2-.2 1.7-.7l9.7-9.8c5.6 4.8 12.7 7.5 20.2 7.5 7.7 0 14.8-2.8 20.2-7.5l9.8 9.8c.5.5 1.1.7 1.7.7.6 0 1.2-.2 1.7-.7.9-.9.9-2.5 0-3.4l-9.5-9.8zm-6.7-46.4c1.2-2 3.3-3.2 5.7-3.2 3.7 0 6.7 3 6.7 6.7 0 2.4-1.3 4.5-3.2 5.7 0-.1-.1-.1-.1-.2-.4-.6-.8-1.2-1.3-1.7-.2-.3-.4-.6-.6-.8-.6-.7-1.3-1.5-1.9-2.1-.4-.4-.8-.7-1.2-1.1-.4-.4-.8-.8-1.2-1.1l-1.2-.9c-.4-.3-.9-.7-1.3-1-.2-.2-.3-.3-.4-.3zm-43 9.1c-1.9-1.2-3.2-3.3-3.2-5.7 0-3.7 3-6.7 6.7-6.7 2.4 0 4.5 1.3 5.7 3.2-.1.1-.2.1-.3.2-.4.3-.9.6-1.3.9l-1.2.9c-.4.3-.8.7-1.2 1-.5.5-1 .9-1.5 1.4-.6.6-1.2 1.2-1.7 1.9l-.6.9c-.4.6-.9 1.1-1.3 1.7 0 .2 0 .3-.1.3zm7.2 35.4c-4.8-4.9-7.4-11.4-7.4-18.3 0-5.4 1.6-10.4 4.4-14.6.1-.2.3-.4.4-.5.3-.5.7-.9 1-1.4.1-.2.3-.3.4-.5 1-1.2 2.1-2.3 3.3-3.3l.3-.3c.5-.4 1.1-.8 1.6-1.2.1-.1.2-.2.3-.2 4.2-2.8 9.2-4.4 14.6-4.4s10.4 1.6 14.6 4.4c.1.1.3.2.4.3l1.5 1.2c.1.1.2.2.4.3.6.5 1.2 1 1.7 1.6.5.5 1 1.1 1.5 1.7.1.2.3.3.4.5.4.4.7.9 1 1.3.1.2.3.4.4.6 2.8 4.2 4.4 9.2 4.4 14.6 0 6.8-2.6 13.1-6.9 17.8-.4.1-.8.3-1.1.6-.3.3-.5.7-.6 1.1-4.7 4.3-10.9 6.9-17.7 6.9-7.2-.2-13.9-3.1-18.9-8.2z"/><path d="M60.8 48.1h-7.9V35.7c0-1.3-1.1-2.4-2.4-2.4s-2.4 1.1-2.4 2.4v14.9c0 1.3 1.1 2.4 2.4 2.4h10.3c1.3 0 2.4-1.1 2.4-2.4 0-1.4-1.1-2.5-2.4-2.5z"/><metadata><rdf:RDF xmlns:rdf="http://www.w3.org/1999/02/22-rdf-syntax-ns#" xmlns:rdfs="http://www.w3.org/2000/01/rdf-schema#" xmlns:dc="http://purl.org/dc/elements/1.1/"><rdf:Description about="https://iconscout.com/legal#licenses" dc:title="alarm,clock,time" dc:description="alarm,clock,time" dc:publisher="Iconscout" dc:date="2017-11-15" dc:format="image/svg+xml" dc:language="en"><dc:creator><rdf:Bag><rdf:li>Lucía González</rdf:li></rdf:Bag></dc:creator></rdf:Description></rdf:RDF></metadata></svg>