<svg xmlns="http://www.w3.org/2000/svg" data-name="Layer 1" viewBox="0 0 24 24" fill="#ffffff" ><path d="M8.31,10.93a.5.5,0,0,0-.5.5.5.5,0,0,0,.5.5.51.51,0,0,0,.5-.5A.5.5,0,0,0,8.31,10.93Zm11.43-2.5h-.5a.5.5,0,0,0-.5.5.5.5,0,0,0,.5.5h.5a1,1,0,0,1,0,2H19a6.61,6.61,0,0,0-2.47-3.07A4,4,0,1,0,9,6.5a4.39,4.39,0,0,0,.07.72A6.47,6.47,0,0,0,8,7.6L4.89,7.08a.93.93,0,0,0-.8,1.57L5.17,9.73a5.89,5.89,0,0,0-1,1.7l-1.31.43a.91.91,0,0,0-.53.47.9.9,0,0,0,0,.7l.62,1.87a.94.94,0,0,0,.88.63h.51a6.58,6.58,0,0,0,2.09,2.6v2A1.36,1.36,0,0,0,7.76,21.5h1a1.35,1.35,0,0,0,1.33-1.13l.12-.69a9.11,9.11,0,0,0,3,0v.5a1.35,1.35,0,0,0,1.35,1.35h1a1.35,1.35,0,0,0,1.34-1.13l.45-2.72a5.87,5.87,0,0,0,2-4.33,5.26,5.26,0,0,0-.08-.89h.47a2,2,0,0,0,0-4ZM13,3.5a3,3,0,0,1,2.68,4.35,8.82,8.82,0,0,0-4.08-1A9.16,9.16,0,0,0,10,7a4.21,4.21,0,0,1,0-.5A3,3,0,0,1,13,3.5ZM16.56,17a.56.56,0,0,0-.16.29l-.48,2.9a.35.35,0,0,1-.35.29h-1a.35.35,0,0,1-.35-.35V19a.5.5,0,0,0-.2-.39.48.48,0,0,0-.3-.11l-.13,0a8.32,8.32,0,0,1-3.72.06.51.51,0,0,0-.38.07.53.53,0,0,0-.22.34L9.1,20.21a.35.35,0,0,1-.35.29h-1a.35.35,0,0,1-.35-.35V17.87a.51.51,0,0,0-.21-.41,5.44,5.44,0,0,1-2.07-2.6.5.5,0,0,0-.47-.33l-.78.05-.6-1.79,1.47-.49A.52.52,0,0,0,5.07,12,5.17,5.17,0,0,1,6.21,10a.49.49,0,0,0,0-.69L5,8.1l3,.51a.63.63,0,0,0,.3,0,7.16,7.16,0,0,1,1.54-.52h0a8,8,0,0,1,1.77-.2,7.84,7.84,0,0,1,4,1.06h0a5.22,5.22,0,0,1,2.76,4.4A4.93,4.93,0,0,1,16.56,17Z"/></svg>